<svg xmlns="http://www.w3.org/2000/svg" viewBox="0 0 117.93 42.52"><defs><style>.cls-1{fill:#f6b800;}.cls-2{fill:#141f54;}</style></defs><title>Zasób 1</title><g id="Warstwa_2" data-name="Warstwa 2"><g id="Layer_1" data-name="Layer 1"><polygon class="cls-1" points="4.53 37.2 4.53 16.54 21.09 5.45 21.09 0 0 14.12 0 41.73 33.68 41.73 33.68 37.2 4.53 37.2"/><polygon class="cls-2" points="19.52 7.84 19.52 13.44 29.02 19.77 29.02 30.6 11.59 30.6 11.59 18.63 6.93 18.63 6.93 35.25 33.68 35.25 33.68 17.28 19.52 7.84"/><path class="cls-2" d="M42.14,35c-3.35,0-6.09-2.26-6.09-5.79V18.81h4V29.16a2.07,2.07,0,0,0,2.13,2.36,2.1,2.1,0,0,0,2.17-2.36V18.81h3.95V29.25C48.26,32.78,45.48,35,42.14,35Z"/><path class="cls-2" d="M58.51,34.91l-2.85-6H54.33v6h-4V18.81h6.38A5.14,5.14,0,0,1,62.24,24a4.63,4.63,0,0,1-2.62,4.2l3.48,6.72ZM56.57,22.36H54.33v3.25h2.24a1.63,1.63,0,1,0,0-3.25Z"/><path class="cls-2" d="M74.34,33.23a6.5,6.5,0,0,1-9,0c-1.69-1.69-1.62-3.95-1.62-6.37s-.07-4.68,1.62-6.38a6.5,6.5,0,0,1,9,0c1.7,1.7,1.63,4,1.63,6.38S76,31.54,74.34,33.23ZM71.43,22.9a2,2,0,0,0-1.59-.7,2,2,0,0,0-1.58.7c-.36.48-.59,1-.59,4s.23,3.46.59,3.93a2,2,0,0,0,1.58.73,2,2,0,0,0,1.59-.73c.36-.47.58-1,.58-3.93S71.79,23.38,71.43,22.9Z"/><path class="cls-2" d="M77.31,30V26.5h7.42V30Z"/><path class="cls-1" d="M97.64,34.91V27.2l-2.28,4H92.82l-2.28-4v7.71h-4V18.81h3.89l3.62,7.1,3.62-7.1h3.89v16.1Z"/><path class="cls-1" d="M113,34.91l-3.7-6.61-1.36,1.57v5H104V18.81h3.91v5.7l4.66-5.7h4.84l-5.5,6.51,5.68,9.59Z"/><path class="cls-1" d="M37.39,41.42v-.26a1,1,0,0,1-.72.3A1,1,0,0,1,36,41.2a1.07,1.07,0,0,1-.29-.82V38.54h.72v1.74a.48.48,0,1,0,1,0V38.54h.72v2.88Z"/><path class="cls-1" d="M39.93,41.46A1.57,1.57,0,0,1,38.7,41l.47-.47a1,1,0,0,0,.77.27c.25,0,.52-.08.52-.3s-.08-.24-.31-.26l-.45-.05c-.53,0-.85-.28-.85-.81s.53-.92,1.12-.92a1.53,1.53,0,0,1,1.1.34l-.44.45A1,1,0,0,0,40,39.1c-.29,0-.42.13-.42.27s.05.23.3.25l.46.05c.57,0,.86.36.86.85S40.62,41.46,39.93,41.46Z"/><path class="cls-1" d="M42.75,41.42a.77.77,0,0,1-.84-.82v-.85l-.3.18v-.6l.3-.19V37.47h.72v1.24L43,38.5v.61l-.33.21v1.23c0,.18.07.26.25.26h.28v.61Z"/><path class="cls-1" d="M45.46,41.42v-.26a1,1,0,0,1-.72.3,1,1,0,0,1-.69-.26,1.07,1.07,0,0,1-.29-.82V38.54h.72v1.74a.48.48,0,1,0,1,0V38.54h.72v2.88Z"/><path class="cls-1" d="M48.05,42.52a1.36,1.36,0,0,1-1-.38l.45-.45a.78.78,0,0,0,.57.22.55.55,0,0,0,.58-.6V41a.85.85,0,0,1-.69.29,1,1,0,0,1-.68-.25,1.48,1.48,0,0,1-.3-1.15,1.44,1.44,0,0,1,.3-1.14,1,1,0,0,1,.69-.26.84.84,0,0,1,.7.31v-.27h.7v2.78A1.17,1.17,0,0,1,48.05,42.52Zm.07-3.37c-.42,0-.47.37-.47.75s.05.75.47.75.48-.37.48-.75S48.55,39.15,48.12,39.15Z"/><path class="cls-1" d="M50.21,38v-.59h.73V38Zm0,3.38V38.54h.72v2.88Z"/><path class="cls-1" d="M54.61,39.32a.47.47,0,0,0-.38-.17.49.49,0,0,0-.47.53v1.74H53V38.54h.71v.27a1,1,0,0,1,.72-.31.87.87,0,0,1,.68.27Z"/><path class="cls-1" d="M56,40.2a.6.6,0,0,0,.63.65.81.81,0,0,0,.66-.27l.44.42a1.37,1.37,0,0,1-1.1.46c-.68,0-1.34-.31-1.34-1.48,0-.95.51-1.48,1.26-1.48a1.24,1.24,0,0,1,1.26,1.38v.32Zm1-.8a.5.5,0,0,0-.48-.3.51.51,0,0,0-.48.3.78.78,0,0,0-.07.31h1.1A.78.78,0,0,0,57.07,39.4Z"/><path class="cls-1" d="M62,41.42V39.68a.48.48,0,1,0-1,0v1.76h-.72V39.68a.48.48,0,1,0-1,0v1.74H58.6V38.54h.7v.26a1,1,0,0,1,.72-.3.89.89,0,0,1,.77.37,1.07,1.07,0,0,1,.86-.37,1.05,1.05,0,0,1,.72.26,1.08,1.08,0,0,1,.31.82v1.84Z"/><path class="cls-1" d="M65.54,41.1a1.2,1.2,0,0,1-.9.36,1.16,1.16,0,0,1-.89-.36,2.07,2.07,0,0,1,0-2.24,1.16,1.16,0,0,1,.89-.36,1.2,1.2,0,0,1,.9.36,2.12,2.12,0,0,1,0,2.24ZM65,39.28a.49.49,0,0,0-.34-.13.44.44,0,0,0-.33.13,1.53,1.53,0,0,0,0,1.4.4.4,0,0,0,.33.13.45.45,0,0,0,.34-.13,1.61,1.61,0,0,0,0-1.4Z"/><path class="cls-1" d="M68.32,41.42V39.68a.48.48,0,1,0-1,0v1.74h-.72V38.54h.7v.26a1,1,0,0,1,.72-.3.94.94,0,0,1,.68.26,1,1,0,0,1,.3.82v1.84Z"/><path class="cls-1" d="M70.8,41.42A.78.78,0,0,1,70,40.6V39.17h-.3v-.55H70v-.86h.72v.86h.51v.55h-.51v1.38c0,.17.08.26.25.26h.26v.61Z"/><path class="cls-1" d="M73.91,41.1a1.29,1.29,0,0,1-1.79,0,2.07,2.07,0,0,1,0-2.24,1.29,1.29,0,0,1,1.79,0,2.07,2.07,0,0,1,0,2.24Zm-.56-1.82a.46.46,0,0,0-.34-.13.45.45,0,0,0-.33.13,1.53,1.53,0,0,0,0,1.4.42.42,0,0,0,.33.13.42.42,0,0,0,.34-.13,1.53,1.53,0,0,0,0-1.4Z"/><path class="cls-1" d="M77.87,41.42h-.6l-.6-1.81-.61,1.81h-.59l-.89-2.88h.77l.46,1.78.59-1.78h.53l.59,1.78L78,38.54h.76Z"/><path class="cls-1" d="M81.21,41.1a1.2,1.2,0,0,1-.9.36,1.17,1.17,0,0,1-.89-.36,2.07,2.07,0,0,1,0-2.24,1.17,1.17,0,0,1,.89-.36,1.2,1.2,0,0,1,.9.36,2.07,2.07,0,0,1,0,2.24Zm-.56-1.82a.46.46,0,0,0-.34-.13.45.45,0,0,0-.33.13,1.53,1.53,0,0,0,0,1.4.42.42,0,0,0,.33.13.42.42,0,0,0,.34-.13,1.53,1.53,0,0,0,0-1.4Z"/><path class="cls-1" d="M82.23,40.18v-.67h1.71v.67Z"/><path class="cls-1" d="M86.75,41.1a1.29,1.29,0,0,1-1.79,0,2.07,2.07,0,0,1,0-2.24,1.29,1.29,0,0,1,1.79,0,2.07,2.07,0,0,1,0,2.24Zm-.56-1.82a.46.46,0,0,0-.34-.13.45.45,0,0,0-.33.13,1.61,1.61,0,0,0,0,1.4.42.42,0,0,0,.33.13.42.42,0,0,0,.34-.13,1.53,1.53,0,0,0,0-1.4Z"/><path class="cls-1" d="M89,41.46c-.58,0-1.29-.31-1.29-1.48S88.42,38.5,89,38.5a1.2,1.2,0,0,1,1,.39l-.49.49a.58.58,0,0,0-.46-.23.49.49,0,0,0-.41.19,1,1,0,0,0-.16.64,1,1,0,0,0,.16.64.49.49,0,0,0,.41.19.58.58,0,0,0,.46-.23l.49.48A1.21,1.21,0,0,1,89,41.46Z"/><path class="cls-1" d="M90.58,38v-.59h.74V38Zm0,3.38V38.54h.72v2.88Z"/><path class="cls-1" d="M92.77,40.2a.6.6,0,0,0,.63.65.82.82,0,0,0,.66-.27l.44.42a1.37,1.37,0,0,1-1.1.46c-.69,0-1.34-.31-1.34-1.48,0-.95.51-1.48,1.26-1.48a1.25,1.25,0,0,1,1.26,1.38v.32Zm1-.8a.51.51,0,0,0-.48-.3.5.5,0,0,0-.48.3.78.78,0,0,0-.07.31h1.1A.78.78,0,0,0,93.8,39.4Z"/><path class="cls-1" d="M97.45,41.2a1,1,0,0,1-.7.26.85.85,0,0,1-.7-.29v1.31h-.72V38.54H96v.27a.88.88,0,0,1,.72-.31,1,1,0,0,1,.7.26,1.71,1.71,0,0,1,.3,1.22A1.73,1.73,0,0,1,97.45,41.2Zm-.91-2.05c-.44,0-.49.36-.49.83s0,.83.49.83S97,40.45,97,40,97,39.15,96.54,39.15Z"/><path class="cls-1" d="M99.33,41.42a.78.78,0,0,1-.84-.82V37.47h.72v3.08c0,.18.07.26.26.26h.27v.61Z"/><path class="cls-1" d="M100.83,40.2a.6.6,0,0,0,.63.65.82.82,0,0,0,.66-.27l.43.42a1.34,1.34,0,0,1-1.09.46c-.69,0-1.34-.31-1.34-1.48,0-.95.51-1.48,1.26-1.48a1.25,1.25,0,0,1,1.26,1.38v.32Zm1-.8a.51.51,0,0,0-.48-.3.49.49,0,0,0-.48.3.64.64,0,0,0-.07.31h1.1A.78.78,0,0,0,101.86,39.4Z"/><path class="cls-1" d="M105.07,41.42V39.68a.48.48,0,1,0-1,0v1.74h-.72V38.54h.7v.26a1,1,0,0,1,.72-.3,1,1,0,0,1,.69.26,1.07,1.07,0,0,1,.29.82v1.84Z"/><path class="cls-1" d="M106.64,38v-.59h.73V38Zm0,3.38V38.54h.72v2.88Z"/><path class="cls-1" d="M110.25,41.1a1.29,1.29,0,0,1-1.79,0,2.07,2.07,0,0,1,0-2.24,1.29,1.29,0,0,1,1.79,0,2.07,2.07,0,0,1,0,2.24Zm-.56-1.82a.46.46,0,0,0-.34-.13.45.45,0,0,0-.33.13,1.61,1.61,0,0,0,0,1.4.42.42,0,0,0,.33.13.42.42,0,0,0,.34-.13,1.53,1.53,0,0,0,0-1.4Z"/><path class="cls-1" d="M114.21,41.42h-.6l-.6-1.81-.6,1.81h-.6l-.89-2.88h.77l.47,1.78.58-1.78h.53l.59,1.78.47-1.78h.76Z"/><path class="cls-1" d="M116.12,40.2a.6.6,0,0,0,.63.65.82.82,0,0,0,.66-.27l.44.42a1.37,1.37,0,0,1-1.1.46c-.68,0-1.34-.31-1.34-1.48,0-.95.51-1.48,1.26-1.48a1.25,1.25,0,0,1,1.26,1.38v.32Zm1-.8a.5.5,0,0,0-.48-.3.51.51,0,0,0-.48.3.78.78,0,0,0-.07.31h1.1A.78.78,0,0,0,117.15,39.4Z"/></g></g></svg>