<svg xmlns="http://www.w3.org/2000/svg" viewBox="0 0 117.57 41.73"><defs><style>.cls-1{fill:#f6b800;}.cls-2{fill:#141f54;}</style></defs><title>Zasób 2</title><g id="Warstwa_2" data-name="Warstwa 2"><g id="Layer_1" data-name="Layer 1"><polygon class="cls-1" points="4.53 37.2 4.53 16.54 21.09 5.45 21.09 0 0 14.12 0 41.73 33.68 41.73 33.68 37.2 4.53 37.2"/><polygon class="cls-2" points="19.52 7.84 19.52 13.44 29.02 19.77 29.02 30.6 11.59 30.6 11.59 18.63 6.93 18.63 6.93 35.25 33.68 35.25 33.68 17.28 19.52 7.84"/><path class="cls-2" d="M42.14,35c-3.35,0-6.09-2.26-6.09-5.79V18.81h4V29.16a2.07,2.07,0,0,0,2.13,2.36,2.1,2.1,0,0,0,2.17-2.36V18.81h3.95V29.25C48.26,32.78,45.48,35,42.14,35Z"/><path class="cls-2" d="M58.51,34.91l-2.85-6H54.33v6h-4V18.81h6.38A5.14,5.14,0,0,1,62.24,24a4.63,4.63,0,0,1-2.62,4.2l3.48,6.72ZM56.57,22.36H54.33v3.25h2.24a1.63,1.63,0,1,0,0-3.25Z"/><path class="cls-2" d="M74.34,33.23a6.5,6.5,0,0,1-9,0c-1.69-1.69-1.62-3.95-1.62-6.37s-.07-4.68,1.62-6.38a6.5,6.5,0,0,1,9,0c1.7,1.7,1.63,4,1.63,6.38S76,31.54,74.34,33.23ZM71.43,22.9a2,2,0,0,0-1.59-.7,2,2,0,0,0-1.58.7c-.36.48-.59,1-.59,4s.23,3.46.59,3.93a2,2,0,0,0,1.58.73,2,2,0,0,0,1.59-.73c.36-.47.58-1,.58-3.93S71.79,23.38,71.43,22.9Z"/><path class="cls-2" d="M77.31,30V26.5h7.42V30Z"/><path class="cls-1" d="M97.64,34.91V27.2l-2.28,4H92.82l-2.28-4v7.71h-4V18.81h3.89l3.62,7.1,3.62-7.1h3.89v16.1Z"/><path class="cls-1" d="M113,34.91l-3.7-6.61-1.36,1.57v5H104V18.81h3.91v5.7l4.66-5.7h4.84l-5.5,6.51,5.68,9.59Z"/></g></g></svg>